<?xml version="1.0" encoding="iso-8859-1"?>
<!-- Generator: Adobe Illustrator 17.1.0, SVG Export Plug-In . SVG Version: 6.00 Build 0)  -->
<!DOCTYPE svg PUBLIC "-//W3C//DTD SVG 1.1//EN" "http://www.w3.org/Graphics/SVG/1.1/DTD/svg11.dtd">
<svg version="1.1" id="Capa_1" xmlns="http://www.w3.org/2000/svg" xmlns:xlink="http://www.w3.org/1999/xlink" x="0px" y="0px"
	 viewBox="0 0 438.811 438.811" style="enable-background:new 0 0 438.811 438.811;" xml:space="preserve">
<path d="M130.443,365.026c-1.655,0-3.331-0.411-4.878-1.277c-4.818-2.699-6.537-8.793-3.838-13.611
	c13.056-23.312,41.872-41.573,65.604-41.573h150.295c15.986,0,39.813-13.084,47.774-30.596l22.036-48.469
	c2.286-5.028,8.218-7.248,13.242-4.965c5.027,2.286,7.25,8.215,4.965,13.242l-22.036,48.468
	c-7.659,16.847-24.35,30.014-41.313,36.937c0.862,1.478,1.356,3.197,1.356,5.031v26.81c0,5.523-4.478,10-10,10s-10-4.477-10-10
	v-26.81c0-0.008,0-0.015,0-0.023c-2.064,0.247-4.08,0.374-6.025,0.374H210.462v26.459c0,5.523-4.478,10-10,10s-10-4.477-10-10
	v-26.459h-3.13c-16.301,0-38.804,14.647-48.155,31.346C137.345,363.183,133.944,365.025,130.443,365.026z M83.553,364.388
	c-0.411,0-0.826-0.025-1.245-0.077C35.385,358.485,0,318.438,0,271.157c0-51.759,42.107-93.867,93.864-93.867h184.58
	c5.522,0,10,4.477,10,10s-4.478,10-10,10H93.864C53.136,197.29,20,230.427,20,271.157c0,37.207,27.846,68.721,64.772,73.306
	c5.48,0.681,9.372,5.675,8.691,11.156C92.835,360.682,88.525,364.388,83.553,364.388z M286.689,363.291
	c-0.552,0-1.109-0.045-1.672-0.14c-5.446-0.917-9.118-6.075-8.201-11.521l1.427-8.475c0.917-5.446,6.072-9.119,11.521-8.201
	c5.446,0.917,9.118,6.075,8.201,11.521l-1.427,8.475C295.717,359.834,291.482,363.291,286.689,363.291z M293.318,298.645
	c-0.557,0-1.121-0.046-1.688-0.143c-5.444-0.926-9.107-6.09-8.182-11.535l22.678-133.34l-97.773-16.503
	c-2.615-0.441-4.948-1.904-6.485-4.065c-1.537-2.162-2.152-4.845-1.711-7.46l3.502-20.737c0.809-4.789,4.94-8.304,9.797-8.335
	c43.052-0.274,82.192-7.988,110.211-21.721c3.857-1.889,8.484-1.107,11.506,1.942c21.957,22.166,56.398,42.299,96.98,56.69
	c4.578,1.623,7.327,6.301,6.519,11.09l-3.503,20.739c-0.919,5.445-6.076,9.114-11.524,8.195l-97.797-16.506L303.165,290.32
	C302.336,295.197,298.104,298.645,293.318,298.645z M319.438,135.591l97.674,16.486l0.453-2.684
	c-37.52-14.193-68.891-32.584-91.518-53.643c-28.289,12.468-63.955,19.542-104.053,20.636l-0.453,2.682l97.674,16.486
	c0.041,0.007,0.083,0.014,0.124,0.021C319.373,135.579,319.405,135.585,319.438,135.591z M191.404,275.994
	c-9.89,0-19.852-3.999-27.085-10.97c-4.011-3.866-9.695-6.036-14.839-5.666c-3.703,0.268-6.633,1.758-8.708,4.43
	c-0.001,0.002-0.003,0.004-0.005,0.006c-5.529,7.126-13.774,11.426-23.215,12.106c-10.708,0.778-21.819-3.292-29.689-10.876
	c-4.009-3.867-9.702-6.037-14.835-5.667c-3.707,0.267-6.639,1.759-8.715,4.435c-3.385,4.365-9.666,5.159-14.03,1.773
	c-4.364-3.385-5.157-9.667-1.772-14.03c5.542-7.146,13.738-11.453,23.08-12.126c10.788-0.776,22.063,3.415,30.153,11.216
	c3.788,3.65,9.293,5.691,14.37,5.327c2.621-0.189,6.284-1.109,8.853-4.419c0.005-0.006,0.01-0.013,0.015-0.02
	c5.542-7.132,13.729-11.431,23.059-12.104c10.797-0.776,22.065,3.413,30.158,11.214c3.792,3.653,9.296,5.69,14.372,5.329
	c2.616-0.189,6.272-1.107,8.839-4.406c0.003-0.004,0.006-0.008,0.009-0.011c5.542-7.146,13.738-11.452,23.078-12.125
	c10.797-0.776,22.066,3.415,30.158,11.214c3.976,3.833,4.092,10.164,0.259,14.14c-3.832,3.978-10.163,4.092-14.14,0.26
	c-4.01-3.866-9.698-6.037-14.839-5.666c-3.706,0.268-6.639,1.76-8.714,4.435c-0.008,0.01-0.016,0.02-0.023,0.03
	c-5.527,7.108-13.761,11.397-23.188,12.078C193.144,275.963,192.273,275.994,191.404,275.994z M390.373,210.424
	c-1.842,0-3.705-0.508-5.373-1.574c-11.842-7.563-25.512-11.56-39.533-11.56c-5.522,0-10-4.477-10-10s4.478-10,10-10
	c17.843,0,35.235,5.085,50.299,14.705c4.654,2.972,6.018,9.155,3.045,13.81C396.903,208.792,393.673,210.424,390.373,210.424z"/>
<g>
</g>
<g>
</g>
<g>
</g>
<g>
</g>
<g>
</g>
<g>
</g>
<g>
</g>
<g>
</g>
<g>
</g>
<g>
</g>
<g>
</g>
<g>
</g>
<g>
</g>
<g>
</g>
<g>
</g>
</svg>
