<?xml version="1.0" encoding="iso-8859-1"?>
<!-- Generator: Adobe Illustrator 17.1.0, SVG Export Plug-In . SVG Version: 6.00 Build 0)  -->
<!DOCTYPE svg PUBLIC "-//W3C//DTD SVG 1.1//EN" "http://www.w3.org/Graphics/SVG/1.1/DTD/svg11.dtd">
<svg version="1.1" id="Capa_1" xmlns="http://www.w3.org/2000/svg" xmlns:xlink="http://www.w3.org/1999/xlink" x="0px" y="0px"
	 viewBox="0 0 456.509 456.509" style="enable-background:new 0 0 456.509 456.509;" xml:space="preserve">
<path d="M456.509,256.606c0,53.653-43.648,97.303-97.3,97.303H97.299C43.648,353.91,0,310.261,0,256.608
	c0-53.653,43.648-97.303,97.299-97.303h53.816c5.523,0,10,4.477,10,10s-4.477,10-10,10H97.299C54.676,179.305,20,213.982,20,256.606
	c0,42.625,34.676,77.303,77.299,77.303h261.91c42.624,0,77.3-34.677,77.3-77.301c0-42.625-34.676-77.303-77.3-77.303H292.05v89.794
	c0,5.523-4.477,10-10,10s-10-4.477-10-10v-55.212h-55.57c-5.523,0-10-4.477-10-10s4.477-10,10-10h55.57v-62.602
	c0-4.627-2.964-8.686-6.344-8.686c-3.377,0-6.339,4.059-6.339,8.686c0,5.523-4.477,10-10,10s-10-4.477-10-10
	c0-15.817,11.815-28.686,26.339-28.686c14.526,0,26.344,12.869,26.344,28.686v28.02h67.159
	C412.86,159.305,456.509,202.954,456.509,256.606z M227.961,274.925c-11.341,0.817-21.284,6.033-27.997,14.686c0,0,0,0,0,0
	c-4.059,5.231-9.749,6.678-13.807,6.97c-7.496,0.542-15.608-2.461-21.181-7.833c-9.97-9.612-23.847-14.778-37.105-13.823
	c-11.341,0.817-21.284,6.032-27.997,14.685c-3.385,4.363-2.593,10.645,1.771,14.031c4.363,3.385,10.646,2.593,14.031-1.771
	c4.085-5.265,9.668-6.711,13.632-6.997c7.583-0.547,15.928,2.624,21.787,8.273c8.897,8.578,21.146,13.498,33.304,13.498
	c1.066,0,2.133-0.038,3.195-0.115c11.474-0.827,21.478-6.033,28.171-14.658c0.001-0.001,0.001-0.001,0.002-0.002
	c4.084-5.265,9.667-6.71,13.631-6.996c7.586-0.547,15.927,2.625,21.787,8.274c8.897,8.577,21.147,13.497,33.304,13.497
	c1.068,0,2.135-0.038,3.199-0.115c11.469-0.827,21.469-6.031,28.159-14.652c0.002-0.003,0.005-0.005,0.007-0.008
	c4.084-5.265,9.667-6.71,13.631-6.996c7.579-0.544,15.931,2.624,21.792,8.273c1.94,1.871,4.441,2.801,6.939,2.801
	c2.621,0,5.238-1.024,7.2-3.06c3.833-3.976,3.717-10.307-0.259-14.14c-9.97-9.612-23.842-14.776-37.11-13.823
	c-11.341,0.818-21.284,6.033-27.996,14.686c-0.001,0.001-0.001,0.002-0.002,0.002c-4.056,5.229-9.744,6.675-13.801,6.968
	c-7.494,0.538-15.61-2.461-21.183-7.833C255.098,279.137,241.226,273.97,227.961,274.925z M151.92,141.285c5.523,0,10-4.477,10-10
	c0-4.627,2.962-8.686,6.34-8.686c3.378,0,6.342,4.059,6.342,8.686v137.814c0,5.523,4.477,10,10,10s10-4.477,10-10v-20.632h53.759
	c5.523,0,10-4.477,10-10s-4.477-10-10-10h-53.759v-49.162h53.759c5.523,0,10-4.477,10-10s-4.477-10-10-10h-53.759v-28.02
	c0-15.817-11.817-28.686-26.342-28.686c-14.524,0-26.34,12.869-26.34,28.686C141.92,136.808,146.397,141.285,151.92,141.285z"/>
<g>
</g>
<g>
</g>
<g>
</g>
<g>
</g>
<g>
</g>
<g>
</g>
<g>
</g>
<g>
</g>
<g>
</g>
<g>
</g>
<g>
</g>
<g>
</g>
<g>
</g>
<g>
</g>
<g>
</g>
</svg>
